<mxfile host="Electron" agent="Mozilla/5.0 (Windows NT 10.0; Win64; x64) AppleWebKit/537.36 (KHTML, like Gecko) draw.io/24.7.5 Chrome/126.0.6478.183 Electron/31.3.0 Safari/537.36" border="50" scale="3" compressed="false" locked="false" version="24.7.5">
  <diagram name="Blank" id="YmL12bMKpDGza6XwsDPr">
    <mxGraphModel dx="1834" dy="844" grid="0" gridSize="10" guides="1" tooltips="1" connect="1" arrows="1" fold="1" page="0" pageScale="1" pageWidth="827" pageHeight="1169" background="none" math="1" shadow="0">
      <root>
        <mxCell id="X5NqExCQtvZxIxQ7pmgY-0" />
        <mxCell id="1" parent="X5NqExCQtvZxIxQ7pmgY-0" />
        <mxCell id="DmYEq-9DdCR6g0oGdSte-10" value="幻影IM" style="ellipse;whiteSpace=wrap;html=1;align=center;newEdgeStyle={&quot;edgeStyle&quot;:&quot;entityRelationEdgeStyle&quot;,&quot;startArrow&quot;:&quot;none&quot;,&quot;endArrow&quot;:&quot;none&quot;,&quot;segment&quot;:10,&quot;curved&quot;:1,&quot;sourcePerimeterSpacing&quot;:0,&quot;targetPerimeterSpacing&quot;:0};treeFolding=1;treeMoving=1;fillColor=#dae8fc;strokeColor=#6c8ebf;" vertex="1" parent="1">
          <mxGeometry x="199" y="265" width="100" height="40" as="geometry" />
        </mxCell>
        <mxCell id="DmYEq-9DdCR6g0oGdSte-11" value="按用户推送" style="whiteSpace=wrap;html=1;rounded=1;arcSize=50;align=center;verticalAlign=middle;strokeWidth=1;autosize=1;spacing=4;treeFolding=1;treeMoving=1;newEdgeStyle={&quot;edgeStyle&quot;:&quot;entityRelationEdgeStyle&quot;,&quot;startArrow&quot;:&quot;none&quot;,&quot;endArrow&quot;:&quot;none&quot;,&quot;segment&quot;:10,&quot;curved&quot;:1,&quot;sourcePerimeterSpacing&quot;:0,&quot;targetPerimeterSpacing&quot;:0};fillColor=#fff2cc;strokeColor=#d6b656;" vertex="1" parent="1">
          <mxGeometry x="433" y="226" width="99" height="30" as="geometry" />
        </mxCell>
        <mxCell id="DmYEq-9DdCR6g0oGdSte-12" value="" style="edgeStyle=entityRelationEdgeStyle;startArrow=none;endArrow=none;segment=10;curved=1;sourcePerimeterSpacing=0;targetPerimeterSpacing=0;rounded=0;exitX=1;exitY=0.25;exitDx=0;exitDy=0;" edge="1" target="DmYEq-9DdCR6g0oGdSte-11" parent="1" source="DmYEq-9DdCR6g0oGdSte-17">
          <mxGeometry relative="1" as="geometry">
            <mxPoint x="461" y="319" as="sourcePoint" />
          </mxGeometry>
        </mxCell>
        <mxCell id="DmYEq-9DdCR6g0oGdSte-15" value="按TAG推送" style="whiteSpace=wrap;html=1;rounded=1;arcSize=50;align=center;verticalAlign=middle;strokeWidth=1;autosize=1;spacing=4;treeFolding=1;treeMoving=1;newEdgeStyle={&quot;edgeStyle&quot;:&quot;entityRelationEdgeStyle&quot;,&quot;startArrow&quot;:&quot;none&quot;,&quot;endArrow&quot;:&quot;none&quot;,&quot;segment&quot;:10,&quot;curved&quot;:1,&quot;sourcePerimeterSpacing&quot;:0,&quot;targetPerimeterSpacing&quot;:0};fillColor=#fff2cc;strokeColor=#d6b656;" vertex="1" parent="1">
          <mxGeometry x="436" y="296" width="99" height="30" as="geometry" />
        </mxCell>
        <mxCell id="DmYEq-9DdCR6g0oGdSte-16" value="" style="edgeStyle=entityRelationEdgeStyle;startArrow=none;endArrow=none;segment=10;curved=1;sourcePerimeterSpacing=0;targetPerimeterSpacing=0;rounded=0;exitX=1;exitY=0.75;exitDx=0;exitDy=0;" edge="1" target="DmYEq-9DdCR6g0oGdSte-15" parent="1" source="DmYEq-9DdCR6g0oGdSte-17">
          <mxGeometry relative="1" as="geometry">
            <mxPoint x="340" y="431" as="sourcePoint" />
          </mxGeometry>
        </mxCell>
        <mxCell id="DmYEq-9DdCR6g0oGdSte-31" value="" style="edgeStyle=entityRelationEdgeStyle;rounded=0;orthogonalLoop=1;jettySize=auto;html=1;startArrow=none;endArrow=none;segment=10;curved=1;sourcePerimeterSpacing=0;targetPerimeterSpacing=0;exitX=0.75;exitY=1;exitDx=0;exitDy=0;" edge="1" parent="1" source="DmYEq-9DdCR6g0oGdSte-17" target="DmYEq-9DdCR6g0oGdSte-30">
          <mxGeometry relative="1" as="geometry" />
        </mxCell>
        <mxCell id="DmYEq-9DdCR6g0oGdSte-17" value="推送" style="whiteSpace=wrap;html=1;rounded=1;arcSize=50;align=center;verticalAlign=middle;strokeWidth=1;autosize=1;spacing=4;treeFolding=1;treeMoving=1;newEdgeStyle={&quot;edgeStyle&quot;:&quot;entityRelationEdgeStyle&quot;,&quot;startArrow&quot;:&quot;none&quot;,&quot;endArrow&quot;:&quot;none&quot;,&quot;segment&quot;:10,&quot;curved&quot;:1,&quot;sourcePerimeterSpacing&quot;:0,&quot;targetPerimeterSpacing&quot;:0};fillColor=#fff2cc;strokeColor=#d6b656;" vertex="1" parent="1">
          <mxGeometry x="347" y="270" width="63" height="30" as="geometry" />
        </mxCell>
        <mxCell id="DmYEq-9DdCR6g0oGdSte-18" value="" style="edgeStyle=entityRelationEdgeStyle;startArrow=none;endArrow=none;segment=10;curved=1;sourcePerimeterSpacing=0;targetPerimeterSpacing=0;rounded=0;exitX=1;exitY=0.5;exitDx=0;exitDy=0;" edge="1" target="DmYEq-9DdCR6g0oGdSte-17" parent="1" source="DmYEq-9DdCR6g0oGdSte-10">
          <mxGeometry relative="1" as="geometry">
            <mxPoint x="166" y="465" as="sourcePoint" />
          </mxGeometry>
        </mxCell>
        <mxCell id="DmYEq-9DdCR6g0oGdSte-19" value="单聊" style="whiteSpace=wrap;html=1;rounded=1;arcSize=50;align=center;verticalAlign=middle;strokeWidth=1;autosize=1;spacing=4;treeFolding=1;treeMoving=1;newEdgeStyle={&quot;edgeStyle&quot;:&quot;entityRelationEdgeStyle&quot;,&quot;startArrow&quot;:&quot;none&quot;,&quot;endArrow&quot;:&quot;none&quot;,&quot;segment&quot;:10,&quot;curved&quot;:1,&quot;sourcePerimeterSpacing&quot;:0,&quot;targetPerimeterSpacing&quot;:0};fillColor=#d5e8d4;strokeColor=#82b366;" vertex="1" parent="1">
          <mxGeometry x="-23" y="296" width="63" height="30" as="geometry" />
        </mxCell>
        <mxCell id="DmYEq-9DdCR6g0oGdSte-20" value="" style="edgeStyle=entityRelationEdgeStyle;startArrow=none;endArrow=none;segment=10;curved=1;sourcePerimeterSpacing=0;targetPerimeterSpacing=0;rounded=0;exitX=0;exitY=0.75;exitDx=0;exitDy=0;" edge="1" target="DmYEq-9DdCR6g0oGdSte-19" parent="1" source="DmYEq-9DdCR6g0oGdSte-23">
          <mxGeometry relative="1" as="geometry">
            <mxPoint x="-3" y="233" as="sourcePoint" />
            <Array as="points">
              <mxPoint x="85" y="282" />
            </Array>
          </mxGeometry>
        </mxCell>
        <mxCell id="DmYEq-9DdCR6g0oGdSte-21" value="群聊" style="whiteSpace=wrap;html=1;rounded=1;arcSize=50;align=center;verticalAlign=middle;strokeWidth=1;autosize=1;spacing=4;treeFolding=1;treeMoving=1;newEdgeStyle={&quot;edgeStyle&quot;:&quot;entityRelationEdgeStyle&quot;,&quot;startArrow&quot;:&quot;none&quot;,&quot;endArrow&quot;:&quot;none&quot;,&quot;segment&quot;:10,&quot;curved&quot;:1,&quot;sourcePerimeterSpacing&quot;:0,&quot;targetPerimeterSpacing&quot;:0};fillColor=#d5e8d4;strokeColor=#82b366;" vertex="1" parent="1">
          <mxGeometry x="-23" y="221" width="63" height="30" as="geometry" />
        </mxCell>
        <mxCell id="DmYEq-9DdCR6g0oGdSte-22" value="" style="edgeStyle=entityRelationEdgeStyle;startArrow=none;endArrow=none;segment=10;curved=1;sourcePerimeterSpacing=0;targetPerimeterSpacing=0;rounded=0;exitX=0;exitY=0.25;exitDx=0;exitDy=0;" edge="1" target="DmYEq-9DdCR6g0oGdSte-21" parent="1" source="DmYEq-9DdCR6g0oGdSte-23">
          <mxGeometry relative="1" as="geometry">
            <mxPoint x="-2" y="357" as="sourcePoint" />
          </mxGeometry>
        </mxCell>
        <mxCell id="DmYEq-9DdCR6g0oGdSte-29" value="" style="edgeStyle=entityRelationEdgeStyle;rounded=0;orthogonalLoop=1;jettySize=auto;html=1;startArrow=none;endArrow=none;segment=10;curved=1;sourcePerimeterSpacing=0;targetPerimeterSpacing=0;exitX=0.25;exitY=1;exitDx=0;exitDy=0;" edge="1" parent="1" source="DmYEq-9DdCR6g0oGdSte-23" target="DmYEq-9DdCR6g0oGdSte-28">
          <mxGeometry relative="1" as="geometry">
            <Array as="points">
              <mxPoint x="89" y="294" />
            </Array>
          </mxGeometry>
        </mxCell>
        <mxCell id="DmYEq-9DdCR6g0oGdSte-46" value="" style="edgeStyle=entityRelationEdgeStyle;rounded=0;orthogonalLoop=1;jettySize=auto;html=1;startArrow=none;endArrow=none;segment=10;curved=1;sourcePerimeterSpacing=0;targetPerimeterSpacing=0;exitX=0.159;exitY=0.1;exitDx=0;exitDy=0;exitPerimeter=0;" edge="1" parent="1" source="DmYEq-9DdCR6g0oGdSte-23" target="DmYEq-9DdCR6g0oGdSte-45">
          <mxGeometry relative="1" as="geometry" />
        </mxCell>
        <mxCell id="DmYEq-9DdCR6g0oGdSte-23" value="聊天" style="whiteSpace=wrap;html=1;rounded=1;arcSize=50;align=center;verticalAlign=middle;strokeWidth=1;autosize=1;spacing=4;treeFolding=1;treeMoving=1;newEdgeStyle={&quot;edgeStyle&quot;:&quot;entityRelationEdgeStyle&quot;,&quot;startArrow&quot;:&quot;none&quot;,&quot;endArrow&quot;:&quot;none&quot;,&quot;segment&quot;:10,&quot;curved&quot;:1,&quot;sourcePerimeterSpacing&quot;:0,&quot;targetPerimeterSpacing&quot;:0};fillColor=#d5e8d4;strokeColor=#82b366;" vertex="1" parent="1">
          <mxGeometry x="88" y="270" width="63" height="30" as="geometry" />
        </mxCell>
        <mxCell id="DmYEq-9DdCR6g0oGdSte-24" value="" style="edgeStyle=entityRelationEdgeStyle;startArrow=none;endArrow=none;segment=10;curved=1;sourcePerimeterSpacing=0;targetPerimeterSpacing=0;rounded=0;" edge="1" target="DmYEq-9DdCR6g0oGdSte-23" parent="1" source="DmYEq-9DdCR6g0oGdSte-10">
          <mxGeometry relative="1" as="geometry">
            <mxPoint x="194" y="118" as="sourcePoint" />
            <Array as="points">
              <mxPoint x="212" y="273" />
            </Array>
          </mxGeometry>
        </mxCell>
        <mxCell id="DmYEq-9DdCR6g0oGdSte-41" value="" style="edgeStyle=entityRelationEdgeStyle;rounded=0;orthogonalLoop=1;jettySize=auto;html=1;startArrow=none;endArrow=none;segment=10;curved=1;sourcePerimeterSpacing=0;targetPerimeterSpacing=0;" edge="1" parent="1" source="DmYEq-9DdCR6g0oGdSte-28" target="DmYEq-9DdCR6g0oGdSte-40">
          <mxGeometry relative="1" as="geometry" />
        </mxCell>
        <mxCell id="DmYEq-9DdCR6g0oGdSte-42" value="" style="edgeStyle=entityRelationEdgeStyle;rounded=0;orthogonalLoop=1;jettySize=auto;html=1;startArrow=none;endArrow=none;segment=10;curved=1;sourcePerimeterSpacing=0;targetPerimeterSpacing=0;" edge="1" parent="1" source="DmYEq-9DdCR6g0oGdSte-28" target="DmYEq-9DdCR6g0oGdSte-40">
          <mxGeometry relative="1" as="geometry" />
        </mxCell>
        <mxCell id="DmYEq-9DdCR6g0oGdSte-44" value="" style="edgeStyle=entityRelationEdgeStyle;rounded=0;orthogonalLoop=1;jettySize=auto;html=1;startArrow=none;endArrow=none;segment=10;curved=1;sourcePerimeterSpacing=0;targetPerimeterSpacing=0;" edge="1" parent="1" source="DmYEq-9DdCR6g0oGdSte-28" target="DmYEq-9DdCR6g0oGdSte-43">
          <mxGeometry relative="1" as="geometry" />
        </mxCell>
        <mxCell id="DmYEq-9DdCR6g0oGdSte-28" value="聊天记录" style="whiteSpace=wrap;html=1;rounded=1;arcSize=50;align=center;verticalAlign=middle;strokeWidth=1;autosize=1;spacing=4;treeFolding=1;treeMoving=1;newEdgeStyle={&quot;edgeStyle&quot;:&quot;entityRelationEdgeStyle&quot;,&quot;startArrow&quot;:&quot;none&quot;,&quot;endArrow&quot;:&quot;none&quot;,&quot;segment&quot;:10,&quot;curved&quot;:1,&quot;sourcePerimeterSpacing&quot;:0,&quot;targetPerimeterSpacing&quot;:0};fillColor=#d5e8d4;strokeColor=#82b366;" vertex="1" parent="1">
          <mxGeometry x="-35" y="364" width="87" height="30" as="geometry" />
        </mxCell>
        <mxCell id="DmYEq-9DdCR6g0oGdSte-33" value="" style="edgeStyle=entityRelationEdgeStyle;rounded=0;orthogonalLoop=1;jettySize=auto;html=1;startArrow=none;endArrow=none;segment=10;curved=1;sourcePerimeterSpacing=0;targetPerimeterSpacing=0;" edge="1" parent="1" source="DmYEq-9DdCR6g0oGdSte-30" target="DmYEq-9DdCR6g0oGdSte-32">
          <mxGeometry relative="1" as="geometry" />
        </mxCell>
        <mxCell id="DmYEq-9DdCR6g0oGdSte-36" value="" style="edgeStyle=entityRelationEdgeStyle;rounded=0;orthogonalLoop=1;jettySize=auto;html=1;startArrow=none;endArrow=none;segment=10;curved=1;sourcePerimeterSpacing=0;targetPerimeterSpacing=0;" edge="1" parent="1" source="DmYEq-9DdCR6g0oGdSte-30" target="DmYEq-9DdCR6g0oGdSte-35">
          <mxGeometry relative="1" as="geometry" />
        </mxCell>
        <mxCell id="DmYEq-9DdCR6g0oGdSte-39" value="" style="edgeStyle=entityRelationEdgeStyle;rounded=0;orthogonalLoop=1;jettySize=auto;html=1;startArrow=none;endArrow=none;segment=10;curved=1;sourcePerimeterSpacing=0;targetPerimeterSpacing=0;" edge="1" parent="1" source="DmYEq-9DdCR6g0oGdSte-30" target="DmYEq-9DdCR6g0oGdSte-38">
          <mxGeometry relative="1" as="geometry" />
        </mxCell>
        <mxCell id="DmYEq-9DdCR6g0oGdSte-30" value="对接推送平台" style="whiteSpace=wrap;html=1;rounded=1;arcSize=50;align=center;verticalAlign=middle;strokeWidth=1;autosize=1;spacing=4;treeFolding=1;treeMoving=1;newEdgeStyle={&quot;edgeStyle&quot;:&quot;entityRelationEdgeStyle&quot;,&quot;startArrow&quot;:&quot;none&quot;,&quot;endArrow&quot;:&quot;none&quot;,&quot;segment&quot;:10,&quot;curved&quot;:1,&quot;sourcePerimeterSpacing&quot;:0,&quot;targetPerimeterSpacing&quot;:0};fillColor=#fff2cc;strokeColor=#d6b656;" vertex="1" parent="1">
          <mxGeometry x="424" y="380" width="111" height="30" as="geometry" />
        </mxCell>
        <mxCell id="DmYEq-9DdCR6g0oGdSte-32" value="华为推送" style="whiteSpace=wrap;html=1;rounded=1;arcSize=50;align=center;verticalAlign=middle;strokeWidth=1;autosize=1;spacing=4;treeFolding=1;treeMoving=1;newEdgeStyle={&quot;edgeStyle&quot;:&quot;entityRelationEdgeStyle&quot;,&quot;startArrow&quot;:&quot;none&quot;,&quot;endArrow&quot;:&quot;none&quot;,&quot;segment&quot;:10,&quot;curved&quot;:1,&quot;sourcePerimeterSpacing&quot;:0,&quot;targetPerimeterSpacing&quot;:0};fillColor=#fff2cc;strokeColor=#d6b656;" vertex="1" parent="1">
          <mxGeometry x="633" y="324" width="87" height="30" as="geometry" />
        </mxCell>
        <mxCell id="DmYEq-9DdCR6g0oGdSte-35" value="小米推送" style="whiteSpace=wrap;html=1;rounded=1;arcSize=50;align=center;verticalAlign=middle;strokeWidth=1;autosize=1;spacing=4;treeFolding=1;treeMoving=1;newEdgeStyle={&quot;edgeStyle&quot;:&quot;entityRelationEdgeStyle&quot;,&quot;startArrow&quot;:&quot;none&quot;,&quot;endArrow&quot;:&quot;none&quot;,&quot;segment&quot;:10,&quot;curved&quot;:1,&quot;sourcePerimeterSpacing&quot;:0,&quot;targetPerimeterSpacing&quot;:0};fillColor=#fff2cc;strokeColor=#d6b656;" vertex="1" parent="1">
          <mxGeometry x="623" y="369" width="87" height="30" as="geometry" />
        </mxCell>
        <mxCell id="DmYEq-9DdCR6g0oGdSte-38" value="苹果推送" style="whiteSpace=wrap;html=1;rounded=1;arcSize=50;align=center;verticalAlign=middle;strokeWidth=1;autosize=1;spacing=4;treeFolding=1;treeMoving=1;newEdgeStyle={&quot;edgeStyle&quot;:&quot;entityRelationEdgeStyle&quot;,&quot;startArrow&quot;:&quot;none&quot;,&quot;endArrow&quot;:&quot;none&quot;,&quot;segment&quot;:10,&quot;curved&quot;:1,&quot;sourcePerimeterSpacing&quot;:0,&quot;targetPerimeterSpacing&quot;:0};fillColor=#fff2cc;strokeColor=#d6b656;" vertex="1" parent="1">
          <mxGeometry x="635" y="419" width="87" height="30" as="geometry" />
        </mxCell>
        <mxCell id="DmYEq-9DdCR6g0oGdSte-40" value="查询记录" style="whiteSpace=wrap;html=1;rounded=1;arcSize=50;align=center;verticalAlign=middle;strokeWidth=1;autosize=1;spacing=4;treeFolding=1;treeMoving=1;newEdgeStyle={&quot;edgeStyle&quot;:&quot;entityRelationEdgeStyle&quot;,&quot;startArrow&quot;:&quot;none&quot;,&quot;endArrow&quot;:&quot;none&quot;,&quot;segment&quot;:10,&quot;curved&quot;:1,&quot;sourcePerimeterSpacing&quot;:0,&quot;targetPerimeterSpacing&quot;:0};fillColor=#d5e8d4;strokeColor=#82b366;" vertex="1" parent="1">
          <mxGeometry x="-183" y="343" width="87" height="30" as="geometry" />
        </mxCell>
        <mxCell id="DmYEq-9DdCR6g0oGdSte-43" value="删除聊天记录" style="whiteSpace=wrap;html=1;rounded=1;arcSize=50;align=center;verticalAlign=middle;strokeWidth=1;autosize=1;spacing=4;treeFolding=1;treeMoving=1;newEdgeStyle={&quot;edgeStyle&quot;:&quot;entityRelationEdgeStyle&quot;,&quot;startArrow&quot;:&quot;none&quot;,&quot;endArrow&quot;:&quot;none&quot;,&quot;segment&quot;:10,&quot;curved&quot;:1,&quot;sourcePerimeterSpacing&quot;:0,&quot;targetPerimeterSpacing&quot;:0};fillColor=#d5e8d4;strokeColor=#82b366;" vertex="1" parent="1">
          <mxGeometry x="-193" y="408" width="111" height="30" as="geometry" />
        </mxCell>
        <mxCell id="DmYEq-9DdCR6g0oGdSte-45" value="消息已阅反馈" style="whiteSpace=wrap;html=1;rounded=1;arcSize=50;align=center;verticalAlign=middle;strokeWidth=1;autosize=1;spacing=4;treeFolding=1;treeMoving=1;newEdgeStyle={&quot;edgeStyle&quot;:&quot;entityRelationEdgeStyle&quot;,&quot;startArrow&quot;:&quot;none&quot;,&quot;endArrow&quot;:&quot;none&quot;,&quot;segment&quot;:10,&quot;curved&quot;:1,&quot;sourcePerimeterSpacing&quot;:0,&quot;targetPerimeterSpacing&quot;:0};fillColor=#d5e8d4;strokeColor=#82b366;" vertex="1" parent="1">
          <mxGeometry x="-43" y="140" width="111" height="30" as="geometry" />
        </mxCell>
      </root>
    </mxGraphModel>
  </diagram>
</mxfile>
